<?xml version="1.0" encoding="utf-8"?>
<!-- Generator: Adobe Illustrator 23.0.0, SVG Export Plug-In . SVG Version: 6.00 Build 0)  -->
<svg version="1.1" id="Layer_1" xmlns="http://www.w3.org/2000/svg" xmlns:xlink="http://www.w3.org/1999/xlink" x="0px" y="0px"
	 viewBox="0 0 350 350" enable-background="new 0 0 350 350" xml:space="preserve">
<g id="Objects">
	<g>
		<g>
			<g>
				<g>
					<g>
						<path fill="#FDFBFC" d="M192.171,336.133h-41.55c-20.454,0-37.035-16.581-37.035-37.035v-84.052h115.62v84.052
							C229.206,319.552,212.625,336.133,192.171,336.133z"/>
						<g>
							<path fill="#1C3D67" d="M185.876,306.688h-28.96c0-8,6.48-14.48,14.48-14.48S185.876,298.688,185.876,306.688z"/>
							<path fill="#F76563" d="M183.926,306.688h-25.06c2.49-4.33,7.17-7.24,12.53-7.24S181.436,302.358,183.926,306.688z"/>
						</g>
						<path fill="#1C3D67" d="M243.958,237.707c-1.539,11.429-5.166,23.322-12.419,34.059c-1.778,2.637-5.702,2.529-7.361-0.191
							c-3.71-6.06-8.53-18.467-7.241-40.978c0.477-8.267-6.108-15.234-14.387-15.234h-62.309c-8.279,0-14.864,6.967-14.387,15.234
							c1.288,22.511-3.531,34.918-7.241,40.978c-1.646,2.72-5.583,2.827-7.361,0.191c-7.241-10.737-10.88-22.63-12.407-34.059
							c-2.147-16.021,4.354-30.981,15.652-40.608c0,0-5.118-1.121-7.754-5.476c-2.386-3.925,1.825-8.577,6.013-6.68l1.742,0.799
							c0,0-5.714-11.345,7.313-22.332c2.29-1.933,5.786-1.241,7.182,1.408c4.271,8.112,14.507,22.929,30.54,18.539
							c21.771-5.965,61.915-9.544,68.488,13.516C239.496,206.487,246.117,221.554,243.958,237.707z"/>
						<path fill="#1C3D67" d="M230.393,195.636c0,0,5.865-14.563,11.355-8.651C248.777,194.554,230.393,195.636,230.393,195.636z"/>
						<g>
							<circle fill="#1C3D67" cx="143.168" cy="274.328" r="6.168"/>
							<circle fill="#1C3D67" cx="199.624" cy="274.328" r="6.168"/>
						</g>
						<g>
							<path fill="#1C3D67" d="M134.01,264.724c2.347-4.265,7.194-9.664,16.873-10.6c1.139-0.11,1.894-1.232,1.534-2.318
								l-2.451-7.403c-0.314-0.948-1.34-1.453-2.279-1.114c-4.794,1.734-17.877,7.686-17.017,20.758
								C130.787,265.817,133.155,266.279,134.01,264.724z"/>
							<path fill="#1C3D67" d="M208.571,244.286c-2.537-4.155-7.622-9.329-17.335-9.828c-1.143-0.059-1.947-1.145-1.637-2.247
								l2.114-7.506c0.271-0.961,1.273-1.513,2.227-1.216c4.867,1.516,18.206,6.871,17.937,19.968
								C211.841,245.233,209.496,245.801,208.571,244.286z"/>
						</g>
						<path fill="#F76563" d="M173.6,288.657h-3.814c-2.993,0-5.311-2.619-4.947-5.59l1.907-15.563
							c0.306-2.499,2.429-4.378,4.947-4.378l0,0c2.518,0,4.641,1.878,4.947,4.378l1.907,15.563
							C178.911,286.037,176.593,288.657,173.6,288.657z"/>
					</g>
				</g>
			</g>
		</g>
		
			<text transform="matrix(0.9611 -0.2762 0.2762 0.9611 255.8389 208.7183)" fill="#F76563" font-family="'ArialMT'" font-size="53.6669px">?</text>
		
			<text transform="matrix(0.8654 -0.501 0.501 0.8654 98.4852 69.7044)" fill="#F76563" font-family="'ArialMT'" font-size="53.6669px">?</text>
		
			<text transform="matrix(0.8654 -0.501 0.501 0.8654 189.4852 63.7044)" fill="#F76563" font-family="'ArialMT'" font-size="53.6669px">?</text>
		
			<text transform="matrix(0.9334 0.3589 -0.3589 0.9334 183.1607 150.8439)" fill="#F76563" font-family="'ArialMT'" font-size="53.6669px">?</text>
		
			<text transform="matrix(0.9334 0.3589 -0.3589 0.9334 273.1607 291.8439)" fill="#F76563" font-family="'ArialMT'" font-size="53.6669px">?</text>
		
			<text transform="matrix(0.8513 0.5247 -0.5247 0.8513 11.2542 283.0422)" fill="#F76563" font-family="'ArialMT'" font-size="53.6669px">?</text>
		
			<text transform="matrix(0.8513 0.5247 -0.5247 0.8513 74.2542 149.0422)" fill="#F76563" font-family="'ArialMT'" font-size="53.6669px">?</text>
		
			<text transform="matrix(0.8868 -0.4621 0.4621 0.8868 51.9438 221.3955)" fill="#F76563" font-family="'ArialMT'" font-size="46.5825px">?</text>
		
			<text transform="matrix(0.9626 0.0519 0.0375 0.9993 138.9055 106.3853)" fill="#F76563" font-family="'ArialMT'" font-size="57.7405px">?</text>
		
			<text transform="matrix(0.9883 0.1524 -0.1524 0.9883 284.6365 142.1618)" fill="#F76563" font-family="'ArialMT'" font-size="37.0341px">?</text>
		
			<text transform="matrix(0.9883 0.1524 -0.1524 0.9883 295.6365 70.1618)" fill="#F76563" font-family="'ArialMT'" font-size="37.0341px">?</text>
		
			<text transform="matrix(0.8284 0.5602 -0.5602 0.8284 4.068 145.9743)" fill="#F76563" font-family="'ArialMT'" font-size="44.4901px">?</text>
		<g>
			
				<text transform="matrix(0.8477 0.5304 -0.5304 0.8477 205.371 79.652)" fill="#F76563" font-family="'ArialMT'" font-size="89.7745px">?</text>
		</g>
		<g>
			
				<text transform="matrix(0.8667 -0.4989 0.4989 0.8667 45.1949 113.917)" fill="#F76563" font-family="'ArialMT'" font-size="89.7812px">?</text>
		</g>
	</g>
</g>
</svg>
